<svg width="58" height="63" viewBox="0 0 58 63" fill="none" xmlns="http://www.w3.org/2000/svg">
<path d="M50.2941 0C50.2941 0 48.496 9.70892 46.0588 15.4853C43.5088 21.5289 37.4558 29.9118 37.4558 29.9118L-5.85279e-05 29.9118C-5.85279e-05 29.9118 5.89619 21.5169 8.33818 15.4853C10.681 9.69855 12.3088 -1.66039e-06 12.3088 -1.66039e-06L50.2941 0Z" fill="#61072B"/>
<path d="M50.2941 63C50.2941 63 48.496 53.2911 46.0588 47.5147C43.5088 41.4711 37.4558 33.0882 37.4558 33.0882L-5.5913e-05 33.0882C-5.5913e-05 33.0882 5.8962 41.4831 8.33818 47.5147C10.681 53.3014 12.3088 63 12.3088 63L50.2941 63Z" fill="#61072B"/>
<path d="M57.7058 6.88232C57.7058 6.88232 55.9808 14.6677 53.2058 18.7941C50.1614 23.3212 42.7499 28.0588 42.7499 28.0588C42.7499 28.0588 46.2119 22.5709 47.9117 18.7941C49.9241 14.3226 51.8823 6.88232 51.8823 6.88232L57.7058 6.88232Z" fill="#61072B"/>
<path d="M57.7058 56.1177C57.7058 56.1177 55.9808 48.3323 53.2058 44.2059C50.1614 39.6788 42.7499 34.9412 42.7499 34.9412C42.7499 34.9412 46.2119 40.4291 47.9117 44.2059C49.9241 48.6774 51.8823 56.1177 51.8823 56.1177L57.7058 56.1177Z" fill="#61072B"/>
</svg>
